<?xml version="1.0"?>
<svg width="17" height="17" xmlns="http://www.w3.org/2000/svg" xmlns:svg="http://www.w3.org/2000/svg">
 <defs>
  <clipPath id="clip0_18063_441">
   <rect fill="white" height="16" id="svg_1" transform="translate(0.0175781 0.366455)" width="16"/>
  </clipPath>
 </defs>
 <g class="layer">
  <title>Layer 1</title>
  <g clip-path="url(#clip0_18063_441)" id="svg_2">
   <path d="m10.62,8.45l5.4,3.41l0,-6.97l-5.4,3.56z" fill="#7F7F7F" id="svg_3"/>
   <path d="m0.02,4.89l0,6.97l5.39,-3.41l-5.39,-3.56z" fill="#7F7F7F" id="svg_4"/>
   <path d="m15.02,2.87l-14,0c-0.5,0 -0.9,0.37 -0.97,0.85l7.97,5.25l7.97,-5.25c-0.08,-0.48 -0.47,-0.85 -0.97,-0.85z" fill="#7F7F7F" id="svg_5"/>
   <path d="m9.71,9.05l-1.42,0.93c-0.08,0.06 -0.18,0.09 -0.27,0.09c-0.1,0 -0.19,-0.03 -0.28,-0.09l-1.41,-0.93l-6.28,3.97c0.08,0.48 0.47,0.85 0.97,0.85l14,0c0.49,0 0.89,-0.37 0.97,-0.85l-6.28,-3.97z" fill="#7F7F7F" id="svg_6"/>
  </g>
 </g>
</svg>