<svg width="16" height="17" viewBox="0 0 16 17" fill="none" xmlns="http://www.w3.org/2000/svg">
<g clip-path="url(#clip0_17510_127)">
<path d="M12.4454 8.12128L5.32522 1.00121C5.16054 0.836401 4.9407 0.745605 4.7063 0.745605C4.47189 0.745605 4.25206 0.836401 4.08738 1.00121L3.56302 1.52544C3.22182 1.86703 3.22182 2.42221 3.56302 2.76328L9.54203 8.74229L3.55639 14.7279C3.39171 14.8927 3.30078 15.1124 3.30078 15.3467C3.30078 15.5813 3.39171 15.801 3.55639 15.9659L4.08074 16.49C4.24555 16.6548 4.46526 16.7456 4.69966 16.7456C4.93407 16.7456 5.1539 16.6548 5.31859 16.49L12.4454 9.36342C12.6105 9.19809 12.7012 8.97734 12.7006 8.74268C12.7012 8.5071 12.6105 8.28649 12.4454 8.12128Z" fill="#666666"/>
</g>
<defs>
<clipPath id="clip0_17510_127">
<rect width="16" height="16" fill="white" transform="translate(0 0.745605)"/>
</clipPath>
</defs>
</svg>
