<svg width="16" height="17" viewBox="0 0 16 17" fill="none" xmlns="http://www.w3.org/2000/svg">
<g clip-path="url(#clip0_17510_134)">
<path d="M3.55458 9.36993L10.6748 16.49C10.8395 16.6548 11.0593 16.7456 11.2937 16.7456C11.5281 16.7456 11.7479 16.6548 11.9126 16.49L12.437 15.9658C12.7782 15.6242 12.7782 15.069 12.437 14.7279L6.45797 8.74892L12.4436 2.76328C12.6083 2.59847 12.6992 2.37876 12.6992 2.14449C12.6992 1.90995 12.6083 1.69025 12.4436 1.52531L11.9193 1.00121C11.7544 0.836402 11.5347 0.745606 11.3003 0.745606C11.0659 0.745606 10.8461 0.836402 10.6814 1.00121L3.55458 8.12779C3.38951 8.29312 3.29884 8.51387 3.29936 8.74853C3.29884 8.98411 3.38951 9.20472 3.55458 9.36993Z" fill="#D1CECE"/>
</g>
<defs>
<clipPath id="clip0_17510_134">
<rect width="16" height="16" fill="white" transform="matrix(-1 0 0 -1 16 16.7456)"/>
</clipPath>
</defs>
</svg>
