<svg width="16" height="17" viewBox="0 0 16 17" fill="none" xmlns="http://www.w3.org/2000/svg">
<g clip-path="url(#clip0_18077_348)">
<path d="M15.7831 7.94015L11.0217 3.17881C10.7312 2.88831 10.2601 2.88831 9.96961 3.17881C9.67905 3.46937 9.67905 3.94039 9.96961 4.23095L13.4609 7.72226H0.744936C0.334092 7.72226 0.000976562 8.05538 0.000976562 8.46622C0.000976562 8.877 0.334092 9.21018 0.744936 9.21018H13.4609L9.96973 12.7015C9.67917 12.9921 9.67917 13.4631 9.96973 13.7536C10.115 13.8988 10.3054 13.9715 10.4958 13.9715C10.6862 13.9715 10.8766 13.8988 11.0219 13.7536L15.7831 8.99229C16.0736 8.70173 16.0736 8.23071 15.7831 7.94015Z" fill="white"/>
</g>
<defs>
<clipPath id="clip0_18077_348">
<rect width="16" height="16" fill="white" transform="translate(0.000976562 0.466309)"/>
</clipPath>
</defs>
</svg>
