<?xml version="1.0"?>
<svg width="640" height="480" xmlns="http://www.w3.org/2000/svg" xmlns:svg="http://www.w3.org/2000/svg">
 <!-- Created with SVG-edit - https://github.com/SVG-Edit/svgedit-->
 <defs>undefined</defs>
 <g class="layer">
  <title>Layer 1</title>
  <g clip-path="url(#clip0_17510_91)" id="svg_3">
   <path d="m294,476.85c-8.12,0 -16.24,-2.66 -22.62,-7.45c-23.2,-19.15 -45.82,-36.7 -65.54,-52.12l0,0c-58.58,-45.74 -109.04,-85.09 -144.42,-123.92c-38.86,-43.61 -57.42,-84.56 -57.42,-129.77c0,-43.61 16.24,-84.03 45.82,-113.28c30.16,-30.31 71.34,-46.27 116,-46.27c33.64,0 64.38,9.57 91.64,28.72c13.34,9.57 25.52,21.27 36.54,35.1c11.02,-13.83 23.2,-25.53 37.12,-35.1c26.68,-19.15 57.42,-28.72 91.06,-28.72c44.66,0 85.84,15.95 116,46.27c29.58,29.25 45.82,69.67 45.82,113.28c0,45.21 -17.98,86.16 -57.42,129.77c-35.38,38.82 -85.84,78.18 -143.84,123.92c-20.3,15.42 -42.92,32.97 -66.12,52.12c-6.38,4.79 -14.5,7.45 -22.62,7.45zm-128.18,-441.95c-34.8,0 -67.28,12.76 -90.48,36.16c-24.36,23.93 -37.12,56.91 -37.12,92.54c0,37.76 15.08,71.8 49.3,109.56c33.64,36.7 82.94,75.52 140.36,120.19l0,0c19.72,15.95 42.34,33.51 66.12,52.65c23.78,-19.15 46.4,-36.7 66.7,-52.65c56.84,-44.67 106.72,-83.5 139.78,-120.19c34.22,-37.76 49.88,-71.8 49.88,-109.56c0,-35.63 -13.34,-68.61 -37.12,-92.54c-23.78,-23.4 -56.26,-36.16 -91.06,-36.16c-26.1,0 -49.3,7.45 -70.76,22.34c-18.56,13.3 -31.32,29.78 -38.86,41.48c-4.06,6.38 -11.02,9.57 -18.56,9.57c-7.54,0 -14.5,-3.19 -18.56,-9.57c-7.54,-11.7 -20.3,-28.19 -38.86,-41.48c-20.88,-14.89 -44.66,-22.34 -70.76,-22.34z" fill="black" id="svg_4"/>
  </g>
  <rect fill="#FF0000" height="0" id="svg_5" stroke="#000000" width="0" x="652" y="460"/>
 </g>
</svg>