<svg width="11" height="11" viewBox="0 0 11 11" fill="none" xmlns="http://www.w3.org/2000/svg">
<g clip-path="url(#clip0_17609_95)">
<path d="M8.87109 7.10266C8.29227 7.10266 7.77795 7.38395 7.45746 7.81694L4.69828 6.40688C4.74457 6.24961 4.76953 6.08331 4.76953 5.91125C4.76953 5.67823 4.72385 5.45571 4.64113 5.25202L7.53293 3.51456C7.85559 3.89327 8.33574 4.13391 8.87109 4.13391C9.84035 4.13391 10.6289 3.34536 10.6289 2.3761C10.6289 1.40684 9.84035 0.618286 8.87109 0.618286C7.90184 0.618286 7.11328 1.40684 7.11328 2.3761C7.11328 2.60012 7.15549 2.81444 7.23223 3.01165L4.3332 4.75344C4.01078 4.3859 3.53791 4.15344 3.01172 4.15344C2.04246 4.15344 1.25391 4.942 1.25391 5.91125C1.25391 6.88051 2.04246 7.66907 3.01172 7.66907C3.60004 7.66907 4.12172 7.37852 4.44096 6.9334L7.19213 8.33936C7.1409 8.50409 7.11328 8.67911 7.11328 8.86047C7.11328 9.82973 7.90184 10.6183 8.87109 10.6183C9.84035 10.6183 10.6289 9.82973 10.6289 8.86047C10.6289 7.89122 9.84035 7.10266 8.87109 7.10266ZM8.87109 1.20422C9.51727 1.20422 10.043 1.72993 10.043 2.3761C10.043 3.02227 9.51727 3.54797 8.87109 3.54797C8.22492 3.54797 7.69922 3.02227 7.69922 2.3761C7.69922 1.72993 8.22492 1.20422 8.87109 1.20422ZM3.01172 7.08313C2.36555 7.08313 1.83984 6.55743 1.83984 5.91125C1.83984 5.26508 2.36555 4.73938 3.01172 4.73938C3.65789 4.73938 4.18359 5.26508 4.18359 5.91125C4.18359 6.55743 3.65789 7.08313 3.01172 7.08313ZM8.87109 10.0323C8.22492 10.0323 7.69922 9.50665 7.69922 8.86047C7.69922 8.2143 8.22492 7.6886 8.87109 7.6886C9.51727 7.6886 10.043 8.2143 10.043 8.86047C10.043 9.50665 9.51727 10.0323 8.87109 10.0323Z" fill="black"/>
</g>
<defs>
<clipPath id="clip0_17609_95">
<rect width="10" height="10" fill="white" transform="translate(0.941406 0.618286)"/>
</clipPath>
</defs>
</svg>
