<svg width="44" height="51" viewBox="0 0 44 51" fill="none" xmlns="http://www.w3.org/2000/svg">
<path d="M43.4968 14.0382L43.4952 13.9993C43.4735 13.519 43.459 13.0109 43.4502 12.4456C43.4094 9.68872 41.2179 7.4083 38.4606 7.25419C32.7119 6.93337 28.2647 5.05884 24.4649 1.35516L24.4325 1.32426C23.1931 0.187863 21.3235 0.187863 20.0837 1.32426L20.0513 1.35516C16.2515 5.05884 11.8043 6.93337 6.05562 7.25457C3.29874 7.4083 1.10682 9.68872 1.06601 12.446C1.05761 13.0075 1.04274 13.5156 1.02099 13.9993L1.0187 14.0897C0.906934 19.9518 0.76808 27.2473 3.20872 33.8693C4.55072 37.5108 6.58319 40.6762 9.24927 43.2782C12.2858 46.2414 16.263 48.5939 21.0702 50.2701C21.2266 50.3247 21.3891 50.3689 21.5547 50.4021C21.7881 50.4487 22.0231 50.4719 22.2581 50.4719C22.4931 50.4719 22.7285 50.4487 22.9615 50.4021C23.1271 50.3689 23.2908 50.3243 23.4479 50.2694C28.2495 48.5901 32.2225 46.2365 35.2563 43.2736C37.9212 40.6708 39.9537 37.5047 41.2968 33.8624C43.7466 27.2206 43.6082 19.9113 43.4968 14.0382ZM38.5442 32.8473C35.97 39.8267 30.7153 44.6198 22.4797 47.4999C22.4504 47.5098 22.4191 47.5186 22.3867 47.5251C22.3016 47.5419 22.215 47.5419 22.1288 47.5247C22.0968 47.5182 22.0655 47.5098 22.0365 47.4999C13.7922 44.6251 8.53402 39.8347 5.96178 32.8549C3.71225 26.7511 3.83967 20.054 3.9522 14.1458L3.95296 14.113C3.97585 13.6053 3.99111 13.0735 3.9995 12.4891C4.01781 11.265 4.99285 10.2522 6.21927 10.1839C9.47243 10.0023 12.3304 9.37363 14.9564 8.26203C17.579 7.15196 19.9083 5.58717 22.0765 3.47841C22.1868 3.38533 22.3298 3.38495 22.4397 3.47841C24.6083 5.58717 26.9376 7.15196 29.5598 8.26203C32.1858 9.37363 35.0438 10.0023 38.2973 10.1839C39.5238 10.2522 40.4988 11.265 40.5167 12.4895C40.5255 13.0769 40.5408 13.6087 40.5637 14.113C40.6758 20.028 40.8002 26.7305 38.5442 32.8473Z" fill="#244D4D"/>
<path d="M22.2576 13.0121C15.3866 13.0121 9.79688 18.6022 9.79688 25.4728C9.79688 32.3439 15.3866 37.9339 22.2576 37.9339C29.1282 37.9339 34.7183 32.3439 34.7183 25.4728C34.7183 18.6022 29.1282 13.0121 22.2576 13.0121ZM22.2576 34.9996C17.0044 34.9996 12.7308 30.726 12.7308 25.4728C12.7308 20.2196 17.0044 15.946 22.2576 15.946C27.5104 15.946 31.784 20.2196 31.784 25.4728C31.784 30.726 27.5104 34.9996 22.2576 34.9996Z" fill="#244D4D"/>
<path d="M25.8384 21.6043L20.0507 27.392L18.4798 25.8211C17.9069 25.2481 16.978 25.2481 16.405 25.8211C15.8324 26.3941 15.8324 27.3229 16.405 27.8955L19.0135 30.504C19.3 30.7905 19.6754 30.9336 20.0507 30.9336C20.4261 30.9336 20.8015 30.7905 21.0879 30.504L27.9132 23.6788C28.4858 23.1058 28.4858 22.1769 27.9132 21.6043C27.3402 21.031 26.4114 21.031 25.8384 21.6043Z" fill="#244D4D"/>
</svg>
