<svg xmlns="http://www.w3.org/2000/svg" xmlns:xlink="http://www.w3.org/1999/xlink" viewBox="0,0,256,256" width="50px" height="50px" fill-rule="nonzero"><g fill="#244d4d" fill-rule="nonzero" stroke="none" stroke-width="1" stroke-linecap="butt" stroke-linejoin="miter" stroke-miterlimit="10" stroke-dasharray="" stroke-dashoffset="0" font-family="none" font-weight="none" font-size="none" text-anchor="none" style="mix-blend-mode: normal"><g transform="scale(5.12,5.12)"><path d="M25,0c-2.19922,0 -4,1.80078 -4,4c0,0.51563 0.10156,1.01563 0.28125,1.46875c-5.625,1.46094 -9.28125,6.34766 -9.28125,12.53125c0,7.83203 -1.92187,11.39844 -3.75,13.40625c-0.91406,1.00391 -1.81641,1.61328 -2.59375,2.1875c-0.39062,0.28516 -0.74609,0.57031 -1.0625,0.9375c-0.31641,0.36719 -0.59375,0.89063 -0.59375,1.46875c0,1.375 0.84375,2.54297 2.03125,3.3125c1.1875,0.76953 2.74609,1.26563 4.625,1.65625c2.4375,0.50391 5.44531,0.76953 8.75,0.90625c-0.25,0.66406 -0.40625,1.37891 -0.40625,2.125c0,3.30078 2.69922,6 6,6c3.30078,0 6,-2.69922 6,-6c0,-0.75 -0.15234,-1.46484 -0.40625,-2.125c3.30469,-0.13672 6.3125,-0.40234 8.75,-0.90625c1.87891,-0.39062 3.4375,-0.88672 4.625,-1.65625c1.1875,-0.76953 2.03125,-1.9375 2.03125,-3.3125c0,-0.57812 -0.27734,-1.10156 -0.59375,-1.46875c-0.31641,-0.36719 -0.67187,-0.65234 -1.0625,-0.9375c-0.77734,-0.57422 -1.67969,-1.18359 -2.59375,-2.1875c-1.82812,-2.00781 -3.75,-5.57422 -3.75,-13.40625c0,-6.17969 -3.66406,-11.0625 -9.28125,-12.53125c0.17969,-0.45312 0.28125,-0.95312 0.28125,-1.46875c0,-2.19922 -1.80078,-4 -4,-4zM25,2c1.11719,0 2,0.88281 2,2c0,1.11719 -0.88281,2 -2,2c-1.11719,0 -2,-0.88281 -2,-2c0,-1.11719 0.88281,-2 2,-2zM27.34375,7.1875c5.33203,0.94922 8.65625,5.07031 8.65625,10.8125c0,8.16797 2.07813,12.36328 4.25,14.75c1.08594,1.19141 2.18359,1.9375 2.90625,2.46875c0.35938,0.26563 0.62891,0.48828 0.75,0.625c0.12109,0.13672 0.09375,0.125 0.09375,0.15625c0,0.625 -0.28906,1.08203 -1.125,1.625c-0.83594,0.54297 -2.19531,1.04688 -3.9375,1.40625c-3.48437,0.72266 -8.44531,0.96875 -13.9375,0.96875c-5.49219,0 -10.45312,-0.24609 -13.9375,-0.96875c-1.74219,-0.35937 -3.10156,-0.86328 -3.9375,-1.40625c-0.83594,-0.54297 -1.125,-1 -1.125,-1.625c0,-0.03125 -0.02734,-0.01953 0.09375,-0.15625c0.12109,-0.13672 0.39063,-0.35937 0.75,-0.625c0.72266,-0.53125 1.82031,-1.27734 2.90625,-2.46875c2.17188,-2.38672 4.25,-6.58203 4.25,-14.75c0,-5.73828 3.32813,-9.82812 8.65625,-10.78125c0.66406,0.48828 1.46484,0.78125 2.34375,0.78125c0.88672,0 1.67969,-0.31641 2.34375,-0.8125zM21.5625,41.9375c1.12109,0.02344 2.26172,0.0625 3.4375,0.0625c1.17578,0 2.31641,-0.03906 3.4375,-0.0625c0.35547,0.60156 0.5625,1.3125 0.5625,2.0625c0,2.22266 -1.77734,4 -4,4c-2.22266,0 -4,-1.77734 -4,-4c0,-0.75781 0.19922,-1.46094 0.5625,-2.0625z"></path></g></g></svg>